<svg id="Layer_1" data-name="Layer 1" xmlns="http://www.w3.org/2000/svg" viewBox="0 0 1500 1500"><defs><style>.cls-1{fill:#fff;}</style></defs><path class="cls-1" d="M1136.62,430.08c-181.35,32.61-311.14,138.55-411,289.08-2.44-11.43-4.37-21.07-6.56-30.65-52.93-231.07-228.77-335.7-413-346.2-9.4-.54-12.07,1.77-11.53,11.14,1.92,33.68,3.24,67.39,4.6,101.1q7.49,185.59,14.66,371.2c.34,8.9,3,12.24,12,14.3C415.34,860.42,500,892.83,577,943.88c2.15,1.42,5.15,2.23,7.19,4a5.12,5.12,0,0,1,2,2,11.59,11.59,0,0,1,6.1,1.59,17.14,17.14,0,0,1,5.86,5,2,2,0,0,1,.28,1.72,22.57,22.57,0,0,1,5.85,3.11,2.07,2.07,0,0,1,.71,1.76,31.27,31.27,0,0,1,8.61,6.8,2.5,2.5,0,0,1,1,.34,41.36,41.36,0,0,1,6,4.58,14.59,14.59,0,0,1,1.73,1.41c.64.5,1.28,1,2,1.42a77.06,77.06,0,0,1,10.91,8,2.16,2.16,0,0,1,.7,2.23c.87.85,1.61,1.93,2.37,2.59,40.19,35.19,75.23,74.72,101.39,121.65,2.6,4.66,5.12,9.37,9.26,17-1.43-45.21-1-86.74,2.08-128.25,6.63-89.21,24-176,60.27-258.09,64.85-146.91,169.51-252.53,322.17-307.42C1134.84,434.77,1137.78,435.08,1136.62,430.08Z"/><path class="cls-1" d="M1438.45,946.1c8.37-3.76,12-11,17.45-16.49,2-2,3.12-7.32,7.09-4.65a8.6,8.6,0,0,1,3.07,9.88c-4.51,14.28-9.89,28.16-21.81,37.94-5,4.08-6.47,8.44-7.07,14.57-3.43,35.07-13.4,67.76-37.21,94.83-22.32,25.38-49.92,34.86-83.17,27.31-20.88-4.73-34-17.25-39.54-37.87-.83-3.08-.9-6.42-4-9.35-16.84,20.45-36.83,36.16-63,42.91a136.58,136.58,0,0,1-44,3.74c-18.71-1.32-28.89-8.48-43.91-29.7-7.56,6.27-15,12.71-22.69,18.74-13.83,10.8-29.72,13.4-46.64,10.67-24.65-4-37.38-19-38-44-.75-33.42,11-64.71,16.19-97.1.59-3.65,1.57-7.26,1.86-10.93.8-10.1.55-20.19-8.83-26.7-9.84-6.82-19.66-2.58-29.31,1.22-6,2.36-8.1,6.89-9.37,13.15-10.44,51.14-21.5,102.16-31.84,153.33-1.86,9.22-5.08,13.07-15.09,12.26a290.43,290.43,0,0,0-39.47-.08c-9.22.52-11.57-2.73-9.22-11.14,1.2-4.3,3.1-8.58,1.79-14.07-8,5.44-15.54,11-23.46,15.86-9.19,5.69-19,9.34-30.2,9-37.95-1.07-56.58-21.58-49.85-59.22,9-50.16,20.35-99.89,30.55-149.84,1.13-5.52,4-7.11,9.41-7,14.8.34,29.64.66,44.42-.08,9.81-.49,10.47,3.15,8.66,11.47q-15.22,69.9-29.58,140c-3.93,19.16,7.84,29.38,26.39,23.28,13.05-4.29,21.74-11.15,24.63-26.85,8.56-46.48,19.39-92.54,28.91-138.85,1.37-6.71,4.06-8.69,10.58-8.5,14.38.41,28.84.83,43.17-.11,10.59-.69,12.07,3,8.65,11.77-.84,2.17-.55,4.78-.88,8.24,10.77-5.07,19.75-11.49,30.09-15.34,19.6-7.3,37.88-6.77,54.18,7.64,16.86,14.9,22.91,33.58,18.44,55.63q-8.6,42.32-17.33,84.61c-1.68,8.13-2,15.72,6.54,20.43s24.53,3,30.44-3c3.25-3.3,1.66-7,1.49-10.48-2-39.78,3.13-78.09,23.83-113,25.61-43.18,69.11-55.79,111.24-46,17.77,4.14,25,16.15,22.59,34-.57,4.25-.58,8.35-7.26,5.87-5.87-2.18-12.07.17-17.95,1.19-.52-.92-1.31-1.67-1.19-2.21,1.78-7.79,3.72-15.91-4.36-21.24-7.72-5.1-15.77-3-23.39,1.1-11.83,6.3-18.93,16.9-24.75,28.37a184.11,184.11,0,0,0-19.76,99.14c1.78,22.93,13.94,33.33,36.7,31.34,23.74-2.08,42.28-14.72,59-30.58,3.89-3.69,2.36-8.47,2.51-12.84,1.18-34.33,8.09-67,28.17-95.66,24-34.3,67.81-51.49,104.78-41.57a42.89,42.89,0,0,1,15.49,7.24c6.29,4.88,6.47,11.21,3.81,17.74-2.88,7-9.22,10.33-16.08,12.26-2.9.82-3.71-2.49-5.24-4.31-8.86-10.6-19.36-12.27-31.58-4.89-8.73,5.26-14.68,13.21-19.26,22-15.68,30.21-21.55,62.89-22.44,96.48-.47,17.64,6.22,26.49,19.74,30.12,13.83,3.71,24-.68,33.05-14.89,12.45-19.54,16.64-41.8,20.44-64.15.56-3.28-.93-4.7-3.46-6.79-9.54-7.92-10.71-18.72-4.21-30.93,7.36-13.83,20.24-20.81,31.94-17.9C1436.06,935,1437.59,940.1,1438.45,946.1Z"/><path class="cls-1" d="M656.79,1018.41c-7.81-10.08-16.51-19.47-24.87-29.12a1.84,1.84,0,0,1-.22-.17c-.48-.44-1-.85-1.49-1.27-2-.5-3.55-1.4-4.24-3.17-1.47-1-3-2-4.46-2.94a28.28,28.28,0,0,1-2.64-2c-1.55-.59-2.83-1.39-3.33-2.8a24.27,24.27,0,0,0-3.48-2.46,2.3,2.3,0,0,1-1.17-1.56c-4.42-1-7.4-4.69-10.69-7.77a2.64,2.64,0,0,1-.64.3,2.69,2.69,0,0,1-1.91-.25l-.78-.36c-1.23-.5-2.48-1-3.66-1.54a11.16,11.16,0,0,1-1.85-1.18,9.54,9.54,0,0,1-1.9-2,1.57,1.57,0,0,1-.25-.52l-.34-.17a17.14,17.14,0,0,1-5.54-4.38,9.57,9.57,0,0,1-1-1.78L582,953c-2.84-.93-5.09-3.32-7.6-4.81a569.33,569.33,0,0,0-55.67-29.1c-68-30.63-138.89-52.54-211.93-67.33-10.46-2.12-14.41-6-14.59-17.53-.72-44.82-3-89.61-4.52-134.41C284.93,618.4,282,537,280,455.58c-.28-11.19-4-14.85-14.08-16.76-36.56-6.93-72.73-2.71-109.06,1.9-9.89,1.26-12.81,3.36-10.16,14q55.51,222.45,110.25,445.1c7.36,29.76,7.53,30,38.61,30.42C347,930.93,398,935.84,448.43,946c62.9,12.71,123,32.65,175.88,70.49a254.34,254.34,0,0,1,57.28,57.14C678.76,1052.64,669.41,1034.68,656.79,1018.41Z"/><path class="cls-1" d="M660,1067.26c-23.23-13.06-46.57-25.83-71.77-34.86-41.9-15-85-23.6-129.35-27.36a539.57,539.57,0,0,0-56.53-2,770.79,770.79,0,0,0-150.89,18.25c-9,2-13.32.46-17.06-8-24.7-56-49.87-111.86-74.78-167.8Q121.2,759.28,83,673.05q-21.28-47.88-42.75-95.69c-2.08-4.6-3.52-8.5,2.55-11,30.75-12.77,61.79-24.6,95.62-25.63,11.88-.35,19,4.5,22.31,17.65,31.17,123.26,63.09,246.33,94.77,369.47,4.06,15.77,4.5,16.32,23.31,15.42,83.26-4,164,8.92,242.32,36.94A416.35,416.35,0,0,1,654.36,1058c2.75,2.38,5.87,4.71,5.87,9Z"/><path class="cls-1" d="M862.29,802.57c20.23-.06,34.85,14.62,34.76,34.91-.08,19.39-14.93,34-34.55,34a33.89,33.89,0,0,1-34.25-34.41C828.29,817.43,842.9,802.62,862.29,802.57Z"/><path class="cls-1" d="M660.23,1067l1.09,1.25-1.37-1Z"/><path class="cls-1" d="M630.21,987.85s-40-33.11-48.2-34.86-7,5.56-7,5.56,14,18.75,14.41,19.34,21.92,16,21.92,16Z"/><path class="cls-1" d="M578.37,944.69s54,37.52,58.77,44.54,4.41-9,4.41-9L626.15,955l-12.24-6.12L593.17,938Z"/><path class="cls-1" d="M268.54,1184.18H243.28v20.66h29.34v6.28h-37v-58.29h36.63v6.28H243.28v18.78h25.26Z"/><path class="cls-1" d="M286,1189.1q0-10,4.73-16a14.92,14.92,0,0,1,12.37-6.07q7.61,0,12.05,5.2v-22.58h7.41v61.5h-6.81l-.36-4.64q-4.44,5.44-12.37,5.44a14.78,14.78,0,0,1-12.27-6.16q-4.74-6.16-4.75-16.1Zm7.41.84q0,7.36,3,11.53a9.85,9.85,0,0,0,8.41,4.17,10.8,10.8,0,0,0,10.29-6.33v-19.9a10.89,10.89,0,0,0-10.21-6.12,9.89,9.89,0,0,0-8.49,4.2Q293.43,1181.69,293.42,1189.94Z"/><path class="cls-1" d="M368.35,1206.84q-4.32,5.09-12.69,5.08-6.93,0-10.55-4T341.44,1196V1167.8h7.41v28q0,9.84,8,9.85,8.49,0,11.29-6.33V1167.8h7.41v43.32h-7.05Z"/><path class="cls-1" d="M411.73,1205.88a10.65,10.65,0,0,0,6.93-2.41,8.44,8.44,0,0,0,3.28-6h7a13.5,13.5,0,0,1-2.57,7.09,16.78,16.78,0,0,1-6.3,5.36,18.13,18.13,0,0,1-8.35,2q-8.85,0-14.07-5.9t-5.23-16.16v-1.24a26.18,26.18,0,0,1,2.32-11.25,17.73,17.73,0,0,1,6.67-7.65,19,19,0,0,1,10.27-2.72,17.37,17.37,0,0,1,12.11,4.36,15.62,15.62,0,0,1,5.15,11.33h-7a10.17,10.17,0,0,0-3.18-6.9,9.92,9.92,0,0,0-7.07-2.7,10.37,10.37,0,0,0-8.75,4.06q-3.1,4.06-3.1,11.75v1.4q0,7.48,3.08,11.53A10.42,10.42,0,0,0,411.73,1205.88Z"/><path class="cls-1" d="M471.56,1211.12a15.82,15.82,0,0,1-1-4.56,16.53,16.53,0,0,1-12.33,5.36,15.28,15.28,0,0,1-10.51-3.62,11.75,11.75,0,0,1-4.1-9.19,12.25,12.25,0,0,1,5.14-10.51q5.14-3.75,14.48-3.74h7.2v-3.41a8.29,8.29,0,0,0-2.32-6.18q-2.32-2.31-6.85-2.31a10.76,10.76,0,0,0-6.64,2,5.88,5.88,0,0,0-2.68,4.84h-7.45a10.23,10.23,0,0,1,2.3-6.26,15.78,15.78,0,0,1,6.25-4.79,21.09,21.09,0,0,1,8.67-1.76q7.49,0,11.73,3.74t4.4,10.31V1201a24.46,24.46,0,0,0,1.52,9.49v.64Zm-12.29-5.64a12.93,12.93,0,0,0,6.61-1.81,10.87,10.87,0,0,0,4.52-4.68v-8.89h-5.8q-13.62,0-13.62,8a6.72,6.72,0,0,0,2.33,5.44A8.89,8.89,0,0,0,459.27,1205.48Z"/><path class="cls-1" d="M507,1157.31v10.49h8.08v5.73H507v26.9a6,6,0,0,0,1.08,3.9,4.54,4.54,0,0,0,3.68,1.31,17.82,17.82,0,0,0,3.52-.48v6a21.53,21.53,0,0,1-5.68.79q-5,0-7.49-3t-2.52-8.53v-26.86h-7.89v-5.73h7.89v-10.49Z"/><path class="cls-1" d="M531.34,1156.31a4.37,4.37,0,0,1,1.1-3,4.12,4.12,0,0,1,3.26-1.25,4.18,4.18,0,0,1,3.28,1.25,4.35,4.35,0,0,1,1.13,3,4.39,4.39,0,1,1-8.77,0Zm8,54.81h-7.4V1167.8h7.4Z"/><path class="cls-1" d="M556.78,1189.06a25.57,25.57,0,0,1,2.5-11.45,18.66,18.66,0,0,1,7-7.85,19,19,0,0,1,10.19-2.76,18.24,18.24,0,0,1,14.31,6.13q5.47,6.12,5.47,16.29v.52a25.73,25.73,0,0,1-2.43,11.35,18.38,18.38,0,0,1-6.92,7.83,19.2,19.2,0,0,1-10.35,2.8,18.26,18.26,0,0,1-14.28-6.12q-5.46-6.13-5.46-16.22Zm7.45.88q0,7.21,3.34,11.57a11.32,11.32,0,0,0,17.92-.06q3.32-4.42,3.32-12.39,0-7.12-3.38-11.55a10.77,10.77,0,0,0-9-4.42,10.63,10.63,0,0,0-8.85,4.36Q564.23,1181.81,564.23,1189.94Z"/><path class="cls-1" d="M620.06,1167.8l.24,5.45a15.77,15.77,0,0,1,13-6.25q13.72,0,13.85,15.49v28.63h-7.4v-28.67c0-3.12-.74-5.43-2.15-6.92s-3.58-2.24-6.54-2.24a10.73,10.73,0,0,0-6.33,1.92,13,13,0,0,0-4.24,5v30.87h-7.41V1167.8Z"/><path class="cls-1" d="M694.84,1211.12v-58.29H711.3a26.51,26.51,0,0,1,13.45,3.36,22.69,22.69,0,0,1,9,9.57A31.09,31.09,0,0,1,737,1180v3.73a31.3,31.3,0,0,1-3.18,14.45,22.38,22.38,0,0,1-9.09,9.53,28.2,28.2,0,0,1-13.75,3.4Zm7.69-52v45.73h8.09q8.88,0,13.83-5.53t4.95-15.75v-3.41q0-9.95-4.67-15.45t-13.23-5.59Z"/><path class="cls-1" d="M773,1211.92q-8.82,0-14.34-5.78t-5.52-15.48v-1.36a26,26,0,0,1,2.46-11.51,19.2,19.2,0,0,1,6.89-7.93,17.26,17.26,0,0,1,9.59-2.86q8.45,0,13.13,5.56t4.68,15.94v3.08H760.52a15.42,15.42,0,0,0,3.75,10.35,11.76,11.76,0,0,0,9.11,4,13,13,0,0,0,6.64-1.6,16.72,16.72,0,0,0,4.77-4.25l4.52,3.52Q783.87,1211.92,773,1211.92Zm-.92-38.83a9.85,9.85,0,0,0-7.53,3.26q-3,3.26-3.77,9.15h21.71v-.56c-.22-3.77-1.23-6.68-3.05-8.75A9.28,9.28,0,0,0,772.06,1173.09Z"/><path class="cls-1" d="M814,1211.12h-7.4v-61.5H814Z"/><path class="cls-1" d="M833.47,1156.31a4.37,4.37,0,0,1,1.1-3,4.12,4.12,0,0,1,3.26-1.25,4.22,4.22,0,0,1,3.29,1.25,4.39,4.39,0,0,1,1.12,3,4,4,0,0,1-4.41,4.2,4,4,0,0,1-4.36-4.2Zm8,54.81h-7.41V1167.8h7.41Z"/><path class="cls-1" d="M875.17,1201.07l10.73-33.27h7.56l-15.53,43.32h-5.65l-15.69-43.32h7.56Z"/><path class="cls-1" d="M925.59,1211.92q-8.8,0-14.33-5.78t-5.53-15.48v-1.36a26,26,0,0,1,2.46-11.51,19.27,19.27,0,0,1,6.89-7.93,17.31,17.31,0,0,1,9.59-2.86q8.45,0,13.13,5.56t4.69,15.94v3.08H913.14a15.41,15.41,0,0,0,3.74,10.35,11.78,11.78,0,0,0,9.11,4,13,13,0,0,0,6.65-1.6,16.82,16.82,0,0,0,4.76-4.25l4.53,3.52Q936.48,1211.92,925.59,1211.92Zm-.92-38.83a9.87,9.87,0,0,0-7.53,3.26q-3,3.26-3.76,9.15h21.7v-.56c-.21-3.77-1.23-6.68-3-8.75A9.3,9.3,0,0,0,924.67,1173.09Z"/><path class="cls-1" d="M979.54,1174.45a21.87,21.87,0,0,0-3.64-.28q-7.29,0-9.89,6.2v30.75H958.6V1167.8h7.21l.12,5a11.53,11.53,0,0,1,10.33-5.8,7.62,7.62,0,0,1,3.28.56Z"/><path class="cls-1" d="M1011.11,1211.92q-8.82,0-14.34-5.78t-5.52-15.48v-1.36a26,26,0,0,1,2.46-11.51,19.2,19.2,0,0,1,6.89-7.93,17.29,17.29,0,0,1,9.59-2.86q8.44,0,13.13,5.56t4.68,15.94v3.08H998.66a15.36,15.36,0,0,0,3.74,10.35,11.76,11.76,0,0,0,9.11,4,13,13,0,0,0,6.64-1.6,16.72,16.72,0,0,0,4.77-4.25l4.52,3.52Q1022,1211.92,1011.11,1211.92Zm-.92-38.83a9.87,9.87,0,0,0-7.53,3.26q-3,3.26-3.76,9.15h21.7v-.56c-.22-3.77-1.23-6.68-3.05-8.75A9.28,9.28,0,0,0,1010.19,1173.09Z"/><path class="cls-1" d="M1042.31,1189.1q0-10,4.73-16a14.92,14.92,0,0,1,12.37-6.07q7.6,0,12,5.2v-22.58h7.41v61.5h-6.81l-.36-4.64q-4.44,5.44-12.37,5.44a14.78,14.78,0,0,1-12.27-6.16q-4.74-6.16-4.75-16.1Zm7.41.84q0,7.36,3,11.53a9.82,9.82,0,0,0,8.4,4.17,10.8,10.8,0,0,0,10.29-6.33v-19.9a10.89,10.89,0,0,0-10.21-6.12,9.86,9.86,0,0,0-8.48,4.2Q1049.72,1181.69,1049.72,1189.94Z"/><path class="cls-1" d="M1097.67,1222.73l-4.21-2.88a19.36,19.36,0,0,0,3.93-10.81v-6.69h7.24v5.81a18.26,18.26,0,0,1-2,8.09A19,19,0,0,1,1097.67,1222.73Z"/><path class="cls-1" d="M1167.73,1185.14q-9.9-2.85-14.4-7a13.35,13.35,0,0,1-4.5-10.23,14.09,14.09,0,0,1,5.5-11.39q5.51-4.5,14.32-4.51a23.88,23.88,0,0,1,10.71,2.33,17.73,17.73,0,0,1,7.29,6.4,16.41,16.41,0,0,1,2.58,8.93h-7.73a10.69,10.69,0,0,0-3.36-8.34q-3.36-3-9.49-3-5.69,0-8.87,2.51a8.36,8.36,0,0,0-3.18,7,7.49,7.49,0,0,0,3,6q3,2.48,10.29,4.52a47.37,47.37,0,0,1,11.37,4.51,17.19,17.19,0,0,1,6.09,5.74,14.67,14.67,0,0,1,2,7.73,13.61,13.61,0,0,1-5.53,11.35q-5.52,4.26-14.77,4.26a27.29,27.29,0,0,1-11.21-2.3,18.83,18.83,0,0,1-8-6.31,15.35,15.35,0,0,1-2.82-9.08h7.72a10,10,0,0,0,3.91,8.34q3.9,3.08,10.43,3.07c4,0,7.17-.83,9.33-2.49a8.06,8.06,0,0,0,3.24-6.76,7.92,7.92,0,0,0-3-6.63C1176.62,1188.2,1173,1186.66,1167.73,1185.14Z"/><path class="cls-1" d="M1205.62,1156.31a4.42,4.42,0,0,1,1.1-3A4.13,4.13,0,0,1,1210,1152a4.2,4.2,0,0,1,3.29,1.25,4.34,4.34,0,0,1,1.12,3,4.21,4.21,0,0,1-1.12,3,4.28,4.28,0,0,1-3.29,1.2,4.21,4.21,0,0,1-3.26-1.2A4.29,4.29,0,0,1,1205.62,1156.31Zm8,54.81h-7.41V1167.8h7.41Z"/><path class="cls-1" d="M1240,1167.8l.2,4.8q4.77-5.6,12.85-5.6,9.09,0,12.38,7a16.29,16.29,0,0,1,5.62-5,16.64,16.64,0,0,1,8.19-1.92q14.25,0,14.49,15.09v29h-7.4v-28.59c0-3.09-.71-5.41-2.13-6.94s-3.79-2.3-7.12-2.3a9.83,9.83,0,0,0-6.85,2.46,9.94,9.94,0,0,0-3.16,6.62v28.75h-7.45v-28.39q0-9.43-9.25-9.44-7.29,0-10,6.2v31.63H1233V1167.8Z"/><path class="cls-1" d="M1349,1189.94q0,9.9-4.52,15.94a14.5,14.5,0,0,1-12.25,6q-7.89,0-12.41-5v20.86h-7.41v-60h6.76l.36,4.8q4.53-5.6,12.58-5.6a14.78,14.78,0,0,1,12.35,5.88q4.54,5.89,4.54,16.38Zm-7.4-.84q0-7.32-3.13-11.57a10.05,10.05,0,0,0-8.56-4.24,10.87,10.87,0,0,0-10.09,6V1200a10.9,10.9,0,0,0,10.17,5.93,10,10,0,0,0,8.46-4.23Q1341.63,1197.44,1341.63,1189.1Z"/><path class="cls-1" d="M1374,1211.12h-7.41v-61.5H1374Z"/><path class="cls-1" d="M1407.6,1200.27l10.09-32.47h7.93l-17.41,50q-4.05,10.82-12.86,10.81l-1.4-.12-2.76-.52v-6l2,.16a9.83,9.83,0,0,0,5.87-1.52c1.4-1,2.55-2.87,3.46-5.56l1.64-4.41-15.45-42.84h8.08Z"/><path class="cls-1" d="M1435.65,1207.24a4.63,4.63,0,0,1,1.14-3.2,4.33,4.33,0,0,1,3.42-1.29,4.48,4.48,0,0,1,3.47,1.29,4.56,4.56,0,0,1,1.18,3.2,4.32,4.32,0,0,1-1.18,3.08,4.57,4.57,0,0,1-3.47,1.24,4.11,4.11,0,0,1-4.56-4.32Z"/></svg>