<svg id="Layer_1" data-name="Layer 1" xmlns="http://www.w3.org/2000/svg" viewBox="0 0 1500 1500"><defs><style>.cls-1{fill:#fff;}</style></defs><path class="cls-1" d="M1144.06,431.69c-181.36,32.62-311.14,138.55-411,289.09-2.44-11.44-4.37-21.08-6.56-30.65-52.94-231.08-228.77-335.7-413-346.21-9.4-.53-12.07,1.78-11.53,11.15,1.92,33.68,3.24,67.39,4.6,101.1q7.49,185.59,14.66,371.19c.34,8.91,3,12.25,12,14.3C422.78,862,507.48,894.45,584.39,945.5c2.14,1.42,5.15,2.22,7.19,4a5.12,5.12,0,0,1,2,2,11.63,11.63,0,0,1,6.1,1.58,17.28,17.28,0,0,1,5.86,5,2,2,0,0,1,.28,1.71,22.38,22.38,0,0,1,5.84,3.12,2.05,2.05,0,0,1,.72,1.76,31.27,31.27,0,0,1,8.61,6.8,2.53,2.53,0,0,1,1,.33,41.34,41.34,0,0,1,6,4.59,13.08,13.08,0,0,1,1.74,1.41c.64.5,1.28,1,2,1.42a77.64,77.64,0,0,1,10.91,8,2.13,2.13,0,0,1,.69,2.23c.87.85,1.62,1.92,2.38,2.59,40.19,35.19,75.23,74.72,101.39,121.65,2.6,4.66,5.12,9.37,9.26,17-1.43-45.22-1-86.74,2.08-128.25,6.62-89.22,24-176,60.27-258.09,64.84-146.91,169.5-252.53,322.17-307.43C1142.28,436.39,1145.22,436.7,1144.06,431.69Z"/><path class="cls-1" d="M1445.89,947.72c8.37-3.76,12-11,17.45-16.49,2-2,3.12-7.32,7.09-4.65a8.59,8.59,0,0,1,3.07,9.88c-4.52,14.27-9.9,28.16-21.81,37.94-5,4.07-6.47,8.44-7.07,14.57-3.43,35.07-13.4,67.76-37.21,94.82-22.32,25.38-49.92,34.86-83.18,27.32-20.87-4.73-34-17.25-39.53-37.87-.83-3.08-.9-6.42-4-9.35-16.85,20.44-36.83,36.16-63,42.9a136.22,136.22,0,0,1-44,3.75c-18.71-1.32-28.9-8.49-43.91-29.7-7.56,6.26-15,12.71-22.69,18.74-13.83,10.8-29.72,13.4-46.64,10.66-24.65-4-37.38-19-38-43.94-.75-33.42,11-64.71,16.19-97.11.58-3.65,1.57-7.25,1.86-10.92.79-10.1.55-20.19-8.83-26.7-9.84-6.83-19.66-2.59-29.31,1.22-6,2.36-8.1,6.89-9.38,13.14-10.43,51.15-21.49,102.17-31.83,153.34-1.87,9.22-5.09,13.07-15.1,12.26a288.67,288.67,0,0,0-39.46-.08c-9.22.52-11.57-2.73-9.22-11.15,1.2-4.29,3.1-8.57,1.79-14.06-8,5.44-15.55,11-23.47,15.86-9.18,5.68-19,9.34-30.2,9-38-1.07-56.57-21.57-49.84-59.21,9-50.16,20.34-99.9,30.55-149.84,1.13-5.53,4-7.12,9.41-7,14.8.34,29.64.66,44.42-.08,9.81-.49,10.47,3.14,8.66,11.47q-15.24,69.9-29.58,140c-3.93,19.16,7.84,29.38,26.39,23.28,13-4.3,21.73-11.16,24.63-26.85,8.56-46.48,19.39-92.54,28.9-138.85,1.38-6.71,4.07-8.69,10.58-8.5,14.39.41,28.84.83,43.18-.11,10.59-.69,12.07,3,8.65,11.77-.85,2.16-.55,4.78-.88,8.24,10.77-5.07,19.75-11.49,30.09-15.34,19.6-7.3,37.88-6.77,54.18,7.64,16.86,14.89,22.91,33.58,18.43,55.63q-8.6,42.32-17.33,84.61c-1.68,8.12-2,15.71,6.55,20.43s24.53,3,30.44-3c3.25-3.3,1.66-7,1.49-10.48-2-39.78,3.13-78.09,23.83-113,25.61-43.18,69.11-55.79,111.23-46,17.78,4.13,25,16.15,22.6,34-.58,4.25-.58,8.35-7.26,5.87-5.87-2.19-12.07.17-18,1.18-.51-.91-1.31-1.66-1.18-2.21,1.78-7.78,3.72-15.9-4.36-21.24-7.72-5.1-15.77-3-23.39,1.11-11.84,6.3-18.94,16.9-24.75,28.37a184,184,0,0,0-19.76,99.13c1.78,22.94,13.94,33.34,36.7,31.35,23.74-2.08,42.27-14.72,59-30.58,3.89-3.69,2.36-8.47,2.51-12.84,1.17-34.33,8.09-67,28.17-95.66,24-34.3,67.8-51.49,104.78-41.57a42.61,42.61,0,0,1,15.48,7.24c6.29,4.88,6.48,11.2,3.81,17.73-2.87,7-9.21,10.33-16.07,12.27-2.9.82-3.71-2.49-5.24-4.32-8.86-10.59-19.36-12.26-31.59-4.88-8.72,5.26-14.67,13.21-19.26,22-15.68,30.21-21.54,62.89-22.44,96.48-.47,17.64,6.23,26.49,19.75,30.11,13.83,3.72,24-.67,33-14.88,12.45-19.55,16.64-41.8,20.44-64.15.56-3.28-.94-4.7-3.46-6.79-9.54-7.92-10.72-18.72-4.21-30.93,7.36-13.83,20.24-20.81,31.93-17.91C1443.49,936.58,1445,941.71,1445.89,947.72Z"/><path class="cls-1" d="M664.23,1020c-7.82-10.08-16.51-19.47-24.88-29.12-.07-.06-.14-.1-.21-.17-.48-.44-1-.85-1.5-1.27-2-.5-3.54-1.4-4.23-3.17-1.47-1-3-2-4.47-2.94a28.14,28.14,0,0,1-2.63-2c-1.55-.6-2.83-1.39-3.33-2.8a25.77,25.77,0,0,0-3.48-2.47,2.23,2.23,0,0,1-1.17-1.55c-4.42-1-7.4-4.69-10.7-7.77a2.38,2.38,0,0,1-.63.29,2.59,2.59,0,0,1-1.91-.25l-.78-.35c-1.23-.5-2.48-1-3.67-1.55a11,11,0,0,1-1.84-1.17,9.86,9.86,0,0,1-1.91-2,1.55,1.55,0,0,1-.24-.52c-.11-.06-.23-.11-.34-.18a17,17,0,0,1-5.54-4.37,9.09,9.09,0,0,1-1-1.79l-.36-.34c-2.84-.93-5.09-3.33-7.61-4.81a567,567,0,0,0-55.66-29.1c-68-30.63-138.89-52.54-211.93-67.34-10.46-2.11-14.41-6-14.59-17.53-.72-44.81-3-89.6-4.52-134.41-2.77-81.4-5.72-162.8-7.75-244.22-.28-11.2-4-14.85-14.08-16.76-36.56-6.93-72.74-2.71-109.07,1.9-9.88,1.26-12.81,3.36-10.15,14q55.51,222.45,110.24,445.1c7.37,29.76,7.54,30,38.62,30.42,51.46.67,102.47,5.57,152.92,15.76,62.9,12.7,123,32.65,175.88,70.49A254.34,254.34,0,0,1,689,1075.27C686.2,1054.25,676.84,1036.3,664.23,1020Z"/><path class="cls-1" d="M667.39,1068.88c-23.23-13.06-46.57-25.83-71.78-34.86-41.89-15-85-23.61-129.34-27.37a536.85,536.85,0,0,0-56.53-2,770.79,770.79,0,0,0-150.89,18.25c-9,2-13.32.45-17.06-8-24.7-56-49.87-111.86-74.78-167.81q-38.37-86.14-76.55-172.38Q69.18,626.79,47.7,579c-2.07-4.6-3.51-8.5,2.55-11,30.76-12.77,61.8-24.61,95.63-25.63,11.88-.36,19,4.5,22.3,17.65C199.36,683.24,231.27,806.31,263,929.44c4.06,15.78,4.51,16.33,23.32,15.43,83.26-4,164,8.91,242.32,36.94a416.12,416.12,0,0,1,133.2,77.81c2.76,2.38,5.87,4.71,5.88,9Z"/><path class="cls-1" d="M869.73,804.18c20.23-.06,34.85,14.63,34.76,34.92-.09,19.39-14.93,34-34.55,34a33.88,33.88,0,0,1-34.25-34.41C835.73,819.05,850.34,804.24,869.73,804.18Z"/><path class="cls-1" d="M667.67,1068.6l1.08,1.25-1.36-1Z"/><path class="cls-1" d="M637.64,989.47s-40-33.11-48.19-34.86-7,5.55-7,5.55,14,18.76,14.41,19.35,21.92,16,21.92,16Z"/><path class="cls-1" d="M585.8,946.31s54,37.51,58.78,44.54,4.41-9,4.41-9l-15.41-25.27-12.24-6.12-20.73-10.86Z"/><path class="cls-1" d="M256.1,1206.3H281V1212H249.13v-52.61h7Z"/><path class="cls-1" d="M281.41,1174.18l-3.79-2.61a17.45,17.45,0,0,0,3.47-9.9v-5.2h6.61v4.7a17.86,17.86,0,0,1-6.29,13Z"/><path class="cls-1" d="M331.68,1187.65h-22.8v18.65h26.49V1212H302v-52.61H335V1165H308.88v17h22.8Z"/><path class="cls-1" d="M345.83,1192.1q0-9,4.26-14.47a14.5,14.5,0,0,1,22-.78v-20.38h6.68V1212h-6.14l-.32-4.19q-4,4.92-11.17,4.91a13.33,13.33,0,0,1-11.07-5.56q-4.29-5.57-4.28-14.53Zm6.68.76q0,6.65,2.75,10.4a8.86,8.86,0,0,0,7.58,3.76,9.75,9.75,0,0,0,9.29-5.71v-18a9.83,9.83,0,0,0-9.21-5.52,8.91,8.91,0,0,0-7.66,3.79Q352.5,1185.42,352.51,1192.86Z"/><path class="cls-1" d="M418.5,1208.1q-3.9,4.59-11.45,4.59-6.26,0-9.52-3.63t-3.31-10.75v-25.44h6.69v25.26q0,8.89,7.22,8.89,7.67,0,10.19-5.71v-28.44H425V1212h-6.36Z"/><path class="cls-1" d="M456,1207.24a9.64,9.64,0,0,0,6.25-2.17,7.63,7.63,0,0,0,3-5.42h6.33a12,12,0,0,1-2.32,6.39,15.17,15.17,0,0,1-5.69,4.85,16.45,16.45,0,0,1-7.53,1.8q-8,0-12.7-5.33t-4.72-14.58v-1.12a23.49,23.49,0,0,1,2.1-10.15,16,16,0,0,1,6-6.9,17,17,0,0,1,9.26-2.46,15.69,15.69,0,0,1,10.93,3.94,14.08,14.08,0,0,1,4.65,10.23h-6.33a9.23,9.23,0,0,0-2.87-6.24,9,9,0,0,0-6.38-2.44,9.37,9.37,0,0,0-7.89,3.67q-2.8,3.68-2.8,10.61v1.26q0,6.77,2.78,10.41A9.42,9.42,0,0,0,456,1207.24Z"/><path class="cls-1" d="M508.39,1212a13.82,13.82,0,0,1-.94-4.12,14.91,14.91,0,0,1-11.13,4.84,13.8,13.8,0,0,1-9.48-3.27,10.57,10.57,0,0,1-3.71-8.29,11,11,0,0,1,4.65-9.48q4.64-3.39,13.06-3.38h6.5v-3.07a7.55,7.55,0,0,0-2.09-5.59q-2.1-2.07-6.18-2.07a9.76,9.76,0,0,0-6,1.8,5.31,5.31,0,0,0-2.42,4.37h-6.72a9.19,9.19,0,0,1,2.08-5.65,14.13,14.13,0,0,1,5.63-4.32,19,19,0,0,1,7.82-1.59q6.77,0,10.59,3.38a12.17,12.17,0,0,1,4,9.3v18a21.9,21.9,0,0,0,1.37,8.56v.58Zm-11.09-5.09a11.8,11.8,0,0,0,6-1.63,9.76,9.76,0,0,0,4.08-4.23v-8H502.1q-12.28,0-12.28,7.19a6.11,6.11,0,0,0,2.09,4.92A8.06,8.06,0,0,0,497.3,1206.88Z"/><path class="cls-1" d="M538.75,1163.41v9.46h7.3V1178h-7.3v24.28a5.39,5.39,0,0,0,1,3.52,4.08,4.08,0,0,0,3.32,1.18,16.08,16.08,0,0,0,3.18-.43V1212a19.86,19.86,0,0,1-5.13.71c-3,0-5.24-.9-6.75-2.71s-2.28-4.37-2.28-7.69V1178H525v-5.17h7.12v-9.46Z"/><path class="cls-1" d="M559.07,1162.5a4,4,0,0,1,1-2.74,3.71,3.71,0,0,1,2.94-1.12,3.8,3.8,0,0,1,3,1.12,4,4,0,0,1,1,2.74,3.62,3.62,0,0,1-4,3.8,3.76,3.76,0,0,1-2.94-1.09A3.86,3.86,0,0,1,559.07,1162.5ZM566.3,1212h-6.68v-39.1h6.68Z"/><path class="cls-1" d="M580.41,1192.06a23.15,23.15,0,0,1,2.25-10.33,16.83,16.83,0,0,1,6.29-7.08,17.06,17.06,0,0,1,9.2-2.5,16.45,16.45,0,0,1,12.91,5.53q4.94,5.53,4.94,14.71v.47a23.25,23.25,0,0,1-2.19,10.24,16.59,16.59,0,0,1-6.25,7.06,17.27,17.27,0,0,1-9.34,2.53,16.43,16.43,0,0,1-12.88-5.53q-4.94-5.52-4.93-14.63Zm6.72.8q0,6.5,3,10.44a9.68,9.68,0,0,0,8.08,3.94,9.57,9.57,0,0,0,8.09-4q3-4,3-11.18,0-6.43-3-10.42a9.72,9.72,0,0,0-8.11-4,9.62,9.62,0,0,0-8,3.94Q587.13,1185.53,587.13,1192.86Z"/><path class="cls-1" d="M635.88,1172.87l.22,4.92a14.25,14.25,0,0,1,11.71-5.64q12.39,0,12.5,14V1212h-6.69V1186.1c0-2.82-.67-4.9-1.93-6.25s-3.23-2-5.91-2a9.62,9.62,0,0,0-5.71,1.73,11.9,11.9,0,0,0-3.83,4.55V1212h-6.68v-39.1Z"/><path class="cls-1" d="M740.58,1187.36a32.45,32.45,0,0,1-2.6,13.5,19.73,19.73,0,0,1-7.37,8.8,20.31,20.31,0,0,1-11.13,3A19.61,19.61,0,0,1,701,1200.93a31.25,31.25,0,0,1-2.73-13.1V1184a32.16,32.16,0,0,1,2.64-13.41,19.51,19.51,0,0,1,18.5-12,20.45,20.45,0,0,1,11.15,3,19.72,19.72,0,0,1,7.42,8.85,32.65,32.65,0,0,1,2.6,13.5Zm-6.9-3.39q0-9.36-3.75-14.36a12.4,12.4,0,0,0-10.52-5,12.26,12.26,0,0,0-10.35,5q-3.78,5-3.89,13.89v3.86q0,9.08,3.82,14.26a13.36,13.36,0,0,0,20.9.29q3.69-4.9,3.79-14Z"/><path class="cls-1" d="M758.41,1212V1178h-6.18v-5.17h6.18v-4q0-6.28,3.36-9.72t9.5-3.43a17.86,17.86,0,0,1,4.59.61l-.36,5.39a18.93,18.93,0,0,0-3.61-.33,6.51,6.51,0,0,0-5,1.91,7.7,7.7,0,0,0-1.77,5.45v4.13h8.34V1178H765.1V1212Z"/><path class="cls-1" d="M789.28,1212V1178H783.1v-5.17h6.18v-4q0-6.28,3.36-9.72t9.5-3.43a17.86,17.86,0,0,1,4.59.61l-.36,5.39a18.93,18.93,0,0,0-3.61-.33,6.51,6.51,0,0,0-5,1.91,7.7,7.7,0,0,0-1.77,5.45v4.13h8.34V1178H796V1212Z"/><path class="cls-1" d="M832.22,1212.69a17.1,17.1,0,0,1-12.94-5.22q-5-5.22-5-14v-1.23a23.49,23.49,0,0,1,2.22-10.39,17.23,17.23,0,0,1,6.22-7.15,15.55,15.55,0,0,1,8.65-2.59q7.62,0,11.85,5t4.23,14.39v2.78H821a14,14,0,0,0,3.38,9.34,10.64,10.64,0,0,0,8.22,3.56,11.59,11.59,0,0,0,6-1.45,15,15,0,0,0,4.3-3.83l4.08,3.18Q842.06,1212.7,832.22,1212.69Zm-.83-35a8.92,8.92,0,0,0-6.79,2.95,14.27,14.27,0,0,0-3.4,8.26h19.58v-.51q-.28-5.1-2.74-7.89A8.4,8.4,0,0,0,831.39,1177.64Z"/><path class="cls-1" d="M879.28,1178.87a19.91,19.91,0,0,0-3.29-.25q-6.57,0-8.92,5.6V1212h-6.69v-39.1h6.5l.11,4.52a10.42,10.42,0,0,1,9.33-5.24,6.78,6.78,0,0,1,3,.51Z"/><path class="cls-1" d="M901.48,1163.41v9.46h7.3V1178h-7.3v24.28a5.4,5.4,0,0,0,1,3.52,4.09,4.09,0,0,0,3.33,1.18,16.08,16.08,0,0,0,3.18-.43V1212a19.86,19.86,0,0,1-5.13.71q-4.49,0-6.76-2.71c-1.52-1.8-2.28-4.37-2.28-7.69V1178h-7.12v-5.17h7.12v-9.46Z"/><path class="cls-1" d="M938,1212.69a17.06,17.06,0,0,1-12.93-5.22q-5-5.22-5-14v-1.23a23.49,23.49,0,0,1,2.22-10.39,17.38,17.38,0,0,1,6.22-7.15,15.57,15.57,0,0,1,8.65-2.59q7.64,0,11.85,5t4.23,14.39v2.78H926.75a13.85,13.85,0,0,0,3.38,9.34,10.61,10.61,0,0,0,8.22,3.56,11.56,11.56,0,0,0,6-1.45,15,15,0,0,0,4.3-3.83l4.09,3.18Q947.81,1212.7,938,1212.69Zm-.83-35a8.92,8.92,0,0,0-6.79,2.95,14.34,14.34,0,0,0-3.4,8.26h19.59v-.51c-.2-3.4-1.11-6-2.75-7.89A8.39,8.39,0,0,0,937.15,1177.64Z"/><path class="cls-1" d="M965.93,1222.45l-3.8-2.6a17.36,17.36,0,0,0,3.54-9.76v-6h6.54v5.24a16.51,16.51,0,0,1-1.78,7.3A17.29,17.29,0,0,1,965.93,1222.45Z"/><path class="cls-1" d="M1025.9,1188.52q-8.93-2.57-13-6.31a12,12,0,0,1-4.07-9.23,12.74,12.74,0,0,1,5-10.28q5-4.07,12.92-4.06a21.63,21.63,0,0,1,9.66,2.09,15.84,15.84,0,0,1,6.58,5.79,14.7,14.7,0,0,1,2.33,8h-7a9.59,9.59,0,0,0-3-7.52c-2-1.83-4.88-2.74-8.56-2.74-3.42,0-6.09.76-8,2.26a7.55,7.55,0,0,0-2.88,6.28,6.78,6.78,0,0,0,2.73,5.45q2.73,2.23,9.29,4.07a43.57,43.57,0,0,1,10.26,4.07,15.49,15.49,0,0,1,5.49,5.19,13.24,13.24,0,0,1,1.79,7,12.29,12.29,0,0,1-5,10.25q-5,3.84-13.33,3.84a24.83,24.83,0,0,1-10.12-2.07,17.08,17.08,0,0,1-7.24-5.7,13.85,13.85,0,0,1-2.55-8.2h7a9.08,9.08,0,0,0,3.52,7.54q3.52,2.76,9.41,2.76,5.49,0,8.42-2.24a7.28,7.28,0,0,0,2.93-6.11,7.17,7.17,0,0,0-2.71-6Q1033,1190.57,1025.9,1188.52Z"/><path class="cls-1" d="M1058.47,1162.5a4,4,0,0,1,1-2.74,3.72,3.72,0,0,1,3-1.12,3.78,3.78,0,0,1,3,1.12,4,4,0,0,1,1,2.74,3.62,3.62,0,0,1-4,3.8,3.77,3.77,0,0,1-3-1.09A3.85,3.85,0,0,1,1058.47,1162.5Zm7.22,49.47H1059v-39.1h6.68Z"/><path class="cls-1" d="M1087.86,1172.87l.18,4.34a14.43,14.43,0,0,1,11.59-5.06q8.2,0,11.17,6.29a14.68,14.68,0,0,1,5.08-4.55,14.93,14.93,0,0,1,7.39-1.74q12.86,0,13.08,13.62V1212h-6.69v-25.8q0-4.18-1.91-6.27c-1.28-1.38-3.42-2.07-6.44-2.07a8.84,8.84,0,0,0-6.17,2.22,9,9,0,0,0-2.86,6V1212h-6.72v-25.62q0-8.52-8.35-8.52-6.57,0-9,5.6V1212h-6.69v-39.1Z"/><path class="cls-1" d="M1184.63,1192.86q0,8.92-4.08,14.38a13.1,13.1,0,0,1-11.06,5.45q-7.11,0-11.2-4.51V1227h-6.68v-54.13h6.1l.33,4.34q4.08-5.06,11.34-5.06a13.33,13.33,0,0,1,11.15,5.31q4.11,5.31,4.1,14.78Zm-6.68-.76q0-6.61-2.82-10.44a9.07,9.07,0,0,0-7.73-3.83,9.83,9.83,0,0,0-9.11,5.38v18.68a9.86,9.86,0,0,0,9.18,5.35,9,9,0,0,0,7.64-3.81Q1177.95,1199.61,1178,1192.1Z"/><path class="cls-1" d="M1205.57,1212h-6.69v-55.5h6.69Z"/><path class="cls-1" d="M1237.66,1212.69a17.08,17.08,0,0,1-12.93-5.22q-5-5.22-5-14v-1.23a23.49,23.49,0,0,1,2.22-10.39,17.38,17.38,0,0,1,6.22-7.15,15.57,15.57,0,0,1,8.65-2.59q7.64,0,11.86,5t4.22,14.39v2.78h-26.48a13.85,13.85,0,0,0,3.38,9.34,10.61,10.61,0,0,0,8.22,3.56,11.53,11.53,0,0,0,6-1.45,14.88,14.88,0,0,0,4.3-3.83l4.09,3.18Q1247.49,1212.7,1237.66,1212.69Zm-.83-35a8.94,8.94,0,0,0-6.79,2.95,14.34,14.34,0,0,0-3.4,8.26h19.59v-.51c-.2-3.4-1.11-6-2.75-7.89A8.39,8.39,0,0,0,1236.83,1177.64Z"/><path class="cls-1" d="M1272.11,1172.87l.18,4.34a14.46,14.46,0,0,1,11.6-5.06q8.2,0,11.17,6.29a14.73,14.73,0,0,1,5.07-4.55,15,15,0,0,1,7.39-1.74q12.87,0,13.08,13.62V1212h-6.68v-25.8q0-4.18-1.92-6.27c-1.27-1.38-3.42-2.07-6.43-2.07a8.66,8.66,0,0,0-9,8.2V1212h-6.72v-25.62q0-8.52-8.35-8.52-6.57,0-9,5.6V1212h-6.68v-39.1Z"/><path class="cls-1" d="M1352.09,1212.69a17.1,17.1,0,0,1-12.94-5.22q-5-5.22-5-14v-1.23a23.49,23.49,0,0,1,2.22-10.39,17.28,17.28,0,0,1,6.21-7.15,15.58,15.58,0,0,1,8.66-2.59q7.62,0,11.85,5t4.23,14.39v2.78h-26.49a13.9,13.9,0,0,0,3.38,9.34,10.61,10.61,0,0,0,8.22,3.56,11.59,11.59,0,0,0,6-1.45,15.14,15.14,0,0,0,4.3-3.83l4.08,3.18Q1361.91,1212.7,1352.09,1212.69Zm-.83-35a8.94,8.94,0,0,0-6.8,2.95,14.27,14.27,0,0,0-3.39,8.26h19.58v-.51c-.19-3.4-1.11-6-2.74-7.89A8.4,8.4,0,0,0,1351.26,1177.64Z"/><path class="cls-1" d="M1386.57,1172.87l.22,4.92a14.23,14.23,0,0,1,11.7-5.64q12.4,0,12.51,14V1212h-6.69V1186.1c0-2.82-.67-4.9-1.93-6.25s-3.23-2-5.91-2a9.62,9.62,0,0,0-5.71,1.73,11.81,11.81,0,0,0-3.83,4.55V1212h-6.68v-39.1Z"/><path class="cls-1" d="M1435.33,1163.41v9.46h7.3V1178h-7.3v24.28a5.4,5.4,0,0,0,1,3.52,4.09,4.09,0,0,0,3.33,1.18,16.08,16.08,0,0,0,3.18-.43V1212a19.86,19.86,0,0,1-5.13.71q-4.48,0-6.76-2.71c-1.52-1.8-2.28-4.37-2.28-7.69V1178h-7.11v-5.17h7.11v-9.46Z"/><path class="cls-1" d="M1455.76,1208.47a4.2,4.2,0,0,1,1-2.89,3.91,3.91,0,0,1,3.09-1.16,4,4,0,0,1,3.13,1.16,4.1,4.1,0,0,1,1.07,2.89,3.9,3.9,0,0,1-1.07,2.78,4.14,4.14,0,0,1-3.13,1.12,3.7,3.7,0,0,1-4.11-3.9Z"/></svg>