<svg id="Layer_1" data-name="Layer 1" xmlns="http://www.w3.org/2000/svg" viewBox="0 0 1500 1500"><defs><style>.cls-1{fill:#fff;}</style></defs><path class="cls-1" d="M1443.67,369.84C1214.46,411.06,1050.43,545,924.23,735.2c-3.08-14.45-5.51-26.64-8.28-38.74-66.9-292-289.13-424.27-522-437.55-11.89-.68-15.25,2.24-14.57,14.09,2.42,42.56,4.1,85.17,5.81,127.77q9.46,234.56,18.53,469.14c.43,11.25,3.76,15.47,15.17,18.07,113.16,25.75,220.2,66.71,317.41,131.23,2.71,1.8,6.51,2.81,9.09,5.09a6.51,6.51,0,0,1,2.5,2.57,14.64,14.64,0,0,1,7.71,2,21.7,21.7,0,0,1,7.4,6.29,2.55,2.55,0,0,1,.36,2.17,28.46,28.46,0,0,1,7.39,3.94,2.6,2.6,0,0,1,.9,2.22,39.52,39.52,0,0,1,10.88,8.59,3.2,3.2,0,0,1,1.31.43,52.21,52.21,0,0,1,7.62,5.79,17,17,0,0,1,2.2,1.79c.8.62,1.61,1.23,2.47,1.79A97.45,97.45,0,0,1,810,1072a2.73,2.73,0,0,1,.88,2.82c1.1,1.08,2,2.43,3,3.28,50.79,44.47,95.08,94.43,128.14,153.74,3.28,5.89,6.47,11.84,11.7,21.43-1.81-57.15-1.26-109.64,2.64-162.1,8.36-112.75,30.37-222.44,76.16-326.18,82-185.68,214.23-319.16,407.18-388.54C1441.42,375.77,1445.13,376.17,1443.67,369.84Z"/><path class="cls-1" d="M837.24,1113.41c-9.88-12.74-20.87-24.62-31.44-36.81-.09-.07-.19-.13-.28-.21-.6-.56-1.25-1.08-1.88-1.61-2.49-.63-4.48-1.76-5.35-4-1.87-1.27-3.76-2.49-5.65-3.71a37,37,0,0,1-3.33-2.49c-2-.75-3.58-1.76-4.2-3.54a32.49,32.49,0,0,0-4.41-3.12,2.83,2.83,0,0,1-1.47-2c-5.59-1.28-9.35-5.93-13.52-9.82a3.09,3.09,0,0,1-.81.37,3.36,3.36,0,0,1-2.41-.31l-1-.45c-1.55-.63-3.13-1.2-4.63-2a14.18,14.18,0,0,1-2.33-1.49,12.32,12.32,0,0,1-2.41-2.48,1.84,1.84,0,0,1-.3-.65l-.43-.22c-2.63-1.52-5.17-3.06-7-5.53a12,12,0,0,1-1.21-2.26l-.46-.43c-3.58-1.18-6.43-4.21-9.61-6.09a717.61,717.61,0,0,0-70.35-36.77c-86-38.71-175.53-66.41-267.85-85.1-13.21-2.68-18.21-7.55-18.44-22.16-.91-56.64-3.79-113.25-5.71-169.87C367.26,607.85,363.54,505,361,402.07c-.35-14.14-5.07-18.76-17.8-21.18-46.2-8.76-91.92-3.42-137.84,2.41-12.49,1.58-16.19,4.24-12.83,17.71q70.16,281.15,139.33,562.54c9.31,37.61,9.52,37.93,48.8,38.44,65,.85,129.51,7,193.27,19.93,79.5,16.05,155.43,41.26,222.29,89.08,28,20,51.88,44.26,72.38,72.22C865,1156.66,853.18,1134,837.24,1113.41Z"/><path class="cls-1" d="M841.23,1175.14c-29.36-16.5-58.86-32.64-90.71-44.06-52.95-19-107.45-29.83-163.47-34.58a680,680,0,0,0-71.46-2.53A973.49,973.49,0,0,0,324.9,1117c-11.38,2.52-16.84.58-21.57-10.16-31.21-70.82-63-141.38-94.51-212.08q-48.48-108.88-96.74-217.87Q85.17,616.41,58,556c-2.61-5.82-4.44-10.75,3.23-13.93,38.86-16.14,78.1-31.1,120.85-32.39,15-.45,24,5.68,28.19,22.3,39.4,155.78,79.74,311.33,119.78,466.95,5.13,19.94,5.69,20.63,29.46,19.49,105.23-5,207.25,11.27,306.26,46.69a526,526,0,0,1,168.35,98.34c3.48,3,7.41,6,7.42,11.35Z"/><path class="cls-1" d="M841.58,1174.79l1.37,1.58-1.72-1.23Z"/><path class="cls-1" d="M803.64,1074.78s-50.57-41.84-60.92-44-8.84,7-8.84,7,17.71,23.71,18.21,24.46,27.7,20.21,27.7,20.21Z"/><path class="cls-1" d="M738.12,1020.24s68.21,47.41,74.28,56.29,5.57-11.34,5.57-11.34l-19.46-31.94L783,1025.52l-26.2-13.73Z"/></svg>