<svg xmlns="http://www.w3.org/2000/svg" xmlns:xlink="http://www.w3.org/1999/xlink" id="Layer_1" x="0" y="0" version="1.1" viewBox="0 0 1500 1500" style="enable-background:new 0 0 1500 1500" xml:space="preserve"><style type="text/css">.st0{fill:#1e5f79}.st1{fill:#29a2b4}.st2{fill:#a8d2e4}.st3{fill:#a8d2e2}</style><g><path d="M1471,348.6c-238.2,42.8-408.6,182-539.8,379.7c-3.2-15-5.7-27.7-8.6-40.3C853,384.5,622.1,247.1,380.1,233.3 c-12.4-0.7-15.9,2.3-15.1,14.6c2.5,44.2,4.3,88.5,6,132.8c6.6,162.5,13,325,19.3,487.5c0.4,11.7,3.9,16.1,15.8,18.8 c117.6,26.7,228.8,69.3,329.9,136.4c2.8,1.9,6.8,2.9,9.4,5.3c1.1,0.6,2,1.5,2.6,2.6c2.8-0.1,5.6,0.7,8,2.1c3,1.6,5.6,3.8,7.7,6.6 c0.5,0.7,0.6,1.5,0.4,2.2c2.7,1,5.3,2.4,7.6,4.2c0.7,0.6,1,1.4,0.9,2.3c4.3,2.3,8.1,5.3,11.3,8.9c0.5,0.1,0.9,0.2,1.3,0.4 c2.8,1.8,5.4,3.8,7.9,6c0.8,0.6,1.6,1.2,2.3,1.9c0.8,0.7,1.7,1.3,2.6,1.9c5.1,3.1,9.9,6.6,14.3,10.5c0.9,0.7,1.2,1.9,0.9,2.9 c1.1,1.1,2.1,2.5,3.1,3.4c52.8,46.2,98.8,98.1,133.2,159.8c3.4,6.1,6.7,12.3,12.2,22.3c-1.9-59.4-1.3-113.9,2.7-168.4 c8.7-117.2,31.5-231.2,79.2-339c85.2-193,222.6-331.7,423.2-403.8C1468.7,354.8,1472.5,355.2,1471,348.6z" class="st0"/><path d="M840.8,1121.3c-10.3-13.2-21.7-25.6-32.7-38.2c-0.1-0.1-0.2-0.1-0.3-0.2c-0.6-0.6-1.3-1.1-2-1.7 c-2.6-0.7-4.6-1.8-5.6-4.2c-1.9-1.3-3.9-2.6-5.9-3.9c-1.2-0.8-2.4-1.7-3.5-2.6c-2-0.8-3.7-1.8-4.4-3.7c-1.4-1.2-3-2.3-4.6-3.2 c-0.8-0.4-1.4-1.2-1.5-2c-5.8-1.3-9.7-6.2-14.1-10.2c-0.3,0.2-0.5,0.3-0.8,0.4c-0.8,0.2-1.7,0.1-2.5-0.3c-0.3-0.2-0.7-0.3-1-0.5 c-1.6-0.7-3.2-1.3-4.8-2c-0.9-0.4-1.7-0.9-2.4-1.5c-0.9-0.8-1.8-1.6-2.5-2.6c-0.2-0.2-0.3-0.4-0.3-0.7c-0.1-0.1-0.3-0.1-0.4-0.2 c-2.8-1.4-5.3-3.3-7.3-5.7c-0.5-0.7-1-1.5-1.3-2.4l-0.5-0.4c-3.7-1.2-6.7-4.4-10-6.3c-23.6-14.1-48.1-26.8-73.1-38.2 c-89.3-40.2-182.4-69-278.3-88.4c-13.7-2.8-18.9-7.9-19.2-23c-0.9-58.9-3.9-117.7-5.9-176.5c-3.6-106.9-7.5-213.8-10.2-320.8 c-0.4-14.7-5.3-19.5-18.5-22c-48-9.1-95.5-3.6-143.3,2.5c-13,1.7-16.8,4.4-13.3,18.4c48.6,194.8,96.9,389.7,144.8,584.6 c9.7,39.1,9.9,39.4,50.7,40c67.6,0.9,134.6,7.3,200.8,20.7c82.6,16.7,161.6,42.9,231,92.6c28.9,20.8,54.3,46.2,75.2,75 C869.6,1166.3,857.3,1142.7,840.8,1121.3z" class="st1"/><path d="M844.9,1185.5c-30.5-17.2-61.2-33.9-94.3-45.8c-55-19.7-111.6-31-169.9-35.9c-24.7-2.2-49.5-3.1-74.3-2.6 c-66.7,1.4-133.1,9.5-198.2,24c-11.8,2.6-17.5,0.6-22.4-10.5c-32.4-73.7-65.5-147-98.2-220.5c-33.6-75.4-67.1-150.9-100.5-226.4 C68.5,625.8,49.8,583.9,31,542.1c-2.7-6-4.6-11.2,3.3-14.4c40.4-16.8,81.2-32.3,125.6-33.7c15.6-0.5,25,5.9,29.3,23.2 c41,161.8,82.9,323.5,124.5,485.2c5.3,20.7,5.9,21.4,30.6,20.3c109.4-5.3,215.4,11.7,318.3,48.5c64.2,22.9,123.5,57.5,175,102.2 c3.6,3.1,7.7,6.2,7.7,11.8L844.9,1185.5z" class="st2"/><path d="M845.3,1185.1l1.4,1.6l-1.8-1.3L845.3,1185.1z" class="st3"/><path d="M805.8,1081.2c0,0-52.5-43.5-63.3-45.8c-10.8-2.3-9.2,7.3-9.2,7.3s18.4,24.6,18.9,25.4 c0.5,0.8,28.8,21,28.8,21L805.8,1081.2z" class="st1"/><path d="M737.8,1024.5c0,0,70.9,49.3,77.2,58.5c6.3,9.2,5.8-11.8,5.8-11.8l-20.2-33.2l-16.1-8l-27.2-14.3L737.8,1024.5 z" class="st0"/></g></svg>